<svg width="37" height="37" viewBox="0 0 37 37" fill="none" xmlns="http://www.w3.org/2000/svg">
<path d="M28.5959 18.0195L28.2332 34.4773C28.2332 34.4773 26.1776 37 18.0765 37C10.0962 37 8.82664 34.1169 8.82664 34.1169L8.52436 18.9805C8.16162 19.0406 8.94755 18.9805 8.52436 18.9805C4.23195 19.0406 0 15.6169 0 11.3523C0 7.08766 3.50647 3.6039 7.79888 3.6039C8.8871 3.6039 9.97531 3.84416 10.9426 4.26461C12.2122 1.74188 14.9327 0 17.9556 0C20.8575 0 23.2153 1.62175 24.6058 3.96429C25.8754 3.00325 27.4472 2.52273 29.2005 2.52273C33.4929 2.52273 36.9993 5.94643 36.9993 10.2711C37.0598 14.5357 32.9488 18.0195 28.5959 18.0195C28.9586 18.0195 28.3541 18.0195 28.5959 18.0195Z" fill="white"/>
</svg>
